<?xml version="1.0" encoding="utf-8"?>
<svg id="master-artboard" viewBox="0 0 1096 780" version="1.1" xmlns="http://www.w3.org/2000/svg" x="0px" y="0px" style="enable-background:new 0 0 1096 780;" width="1096px" height="780px">

<path class="st0" d="M172,346l-34.5,8.1c0.2,1,0.3,1.9,0.3,2.9c0,7.4-5.7,13.4-12.9,14v82.9h59.1v-96.4&#10;&#9;&#9;C177.9,357,172.9,352.1,172,346z M295.3,349.2L259.9,360c0.3,1.1,0.5,2.3,0.5,3.6c0,7-5.3,12.8-12.2,13.5v76.9h59.1v-94.8&#10;&#9;&#9;C301.6,358.7,296.8,354.7,295.3,349.2z M233.3,363.6c0-1.4,0.2-2.8,0.6-4.1l-35.5-12.2c-1.3,5.5-6.1,9.7-11.8,10.3v96.4h59.1v-76.9&#10;&#9;&#9;C238.8,376.5,233.3,370.7,233.3,363.6z" style="fill: rgb(142, 216, 248);" transform="matrix(1, 0, 0, 1, -1.4210854715202004e-14, 0)"/><path class="st1" d="M123.8,339c-9.9,0-18,8.1-18,18s8.1,18,18,18c9.9,0,18-8.1,18-18S133.7,339,123.8,339z M123.8,366&#10;&#9;&#9;c-5,0-9-4-9-9c0-5,4-9,9-9s9,4,9,9C132.8,362,128.7,366,123.8,366z M246.9,345.6c-9.9,0-18,8.1-18,18c0,9.9,8.1,18,18,18&#10;&#9;&#9;c9.9,0,18-8.1,18-18C264.9,353.6,256.8,345.6,246.9,345.6z M246.9,372.6c-5,0-9-4-9-9c0-5,4-9,9-9c5,0,9,4,9,9&#10;&#9;&#9;C255.9,368.5,251.8,372.6,246.9,372.6z M185.3,326.1c-9.9,0-18,8.1-18,18c0,9.9,8.1,18,18,18c9.9,0,18-8.1,18-18&#10;&#9;&#9;C203.3,334.1,195.3,326.1,185.3,326.1z M185.3,353.1c-5,0-9-4-9-9c0-5,4-9,9-9c5,0,9,4,9,9C194.3,349.1,190.3,353.1,185.3,353.1z&#10;&#9;&#9; M308.4,327.6c-9.9,0-18,8.1-18,18c0,9.9,8.1,18,18,18c9.9,0,18-8.1,18-18C326.4,335.6,318.3,327.6,308.4,327.6z M308.4,354.6&#10;&#9;&#9;c-5,0-9-4-9-9c0-5,4-9,9-9c5,0,9,4,9,9C317.4,350.5,313.4,354.6,308.4,354.6z" style="fill: rgb(241, 91, 64);" transform="matrix(1, 0, 0, 1, -1.4210854715202004e-14, 0)"/><path d="M167.4,342.9l-27.6,5.8c1.3,2.5,2,5.3,2,8.3c0,0.4,0,0.8-0.1,1.1l27.6-5.8c-1.3-2.5-2-5.3-2-8.3&#10;&#9;&#9;C167.3,343.7,167.4,343.3,167.4,342.9z M290.4,345.8l-28.3,8.3c1.7,2.7,2.7,5.8,2.7,9.2l28.3-8.3&#10;&#9;&#9;C291.5,352.3,290.5,349.2,290.4,345.8z M200.4,353.9l28.5,9c0.1-3.4,1.2-6.5,2.9-9.2l-28.5-9C203.2,348.1,202.1,351.2,200.4,353.9z&#10;&#9;&#9;" transform="matrix(1, 0, 0, 1, -1.4210854715202004e-14, 0)"/>
<path class="st1" d="M570.1,93.7c12.8,0,24.5,5.2,32.9,13.6l21.9-21.9c-14-14-33.4-22.7-54.7-22.7c-21.4,0-40.7,8.7-54.7,22.7&#10;&#9;&#9;l21.9,21.9C545.6,98.9,557.2,93.7,570.1,93.7z" style="fill: rgb(241, 91, 64);" transform="matrix(1, 0, 0, 1, -1.4210854715202004e-14, 0)"/><path d="M624.8,85.4L603,107.3c8.4,8.4,13.6,20,13.6,32.9h30.9C647.5,118.8,638.8,99.4,624.8,85.4z" transform="matrix(1, 0, 0, 1, -1.4210854715202004e-14, 0)"/><path class="st0" d="M570.1,186.6c-25.7,0-46.5-20.8-46.5-46.5c0-12.8,5.2-24.5,13.6-32.9l-21.9-21.9c-14,14-22.7,33.4-22.7,54.7&#10;&#9;&#9;c0,42.7,34.7,77.4,77.4,77.4c42.7,0,77.4-34.7,77.4-77.4h-30.9C616.6,165.8,595.8,186.6,570.1,186.6z" style="fill: rgb(142, 216, 248);" transform="matrix(1, 0, 0, 1, -1.4210854715202004e-14, 0)"/>
<path d="M 658.2000122070312 463.20001220703125 L 658.2000122070312 312 L 653.4000244140625 312 L 653.4000244140625 463.20001220703125 L 592.5999755859375 463.20001220703125 L 592.5999755859375 312 L 587.7999877929688 312 L 587.7999877929688 463.20001220703125 L 527.0999755859375 463.20001220703125 L 527.0999755859375 312 L 522.2999877929688 312 L 522.2999877929688 463.20001220703125 L 461.5 463.20001220703125 L 461.5 312 L 456.70001220703125 312 L 456.70001220703125 468 L 699.0999755859375 468 L 699.0999755859375 463.20001220703125 Z" class="st0" style="fill: rgb(142, 216, 248);" transform="matrix(1, 0, 0, 1, -1.4210854715202004e-14, 0)"/><path d="M 633.7999877929688 357.70001220703125 L 646.5999755859375 372.20001220703125 L 589.9000244140625 422.5 L 525.0999755859375 377.1000061035156 L 457.1000061035156 408.79998779296875 L 461.1000061035156 417.5 L 524.2000122070312 388.1000061035156 L 590.5999755859375 434.70001220703125 L 653 379.29998779296875 L 665.5999755859375 393.5 L 680.7000122070312 348.1000061035156 Z" transform="matrix(1, 0, 0, 1, -1.4210854715202004e-14, 0)"/><path class="st1" d="M459.1,395.1c-9.9,0-18,8.1-18,18c0,9.9,8.1,18,18,18s18-8.1,18-18C477.1,403.2,469,395.1,459.1,395.1z" style="fill: rgb(241, 91, 64);" transform="matrix(1, 0, 0, 1, -1.4210854715202004e-14, 0)"/><path class="st1" d="M524.7,364.6c-9.9,0-18,8.1-18,18s8.1,18,18,18c9.9,0,18-8.1,18-18S534.6,364.6,524.7,364.6z" style="fill: rgb(241, 91, 64);" transform="matrix(1, 0, 0, 1, -1.4210854715202004e-14, 0)"/><path class="st1" d="M590.2,410.6c-9.9,0-18,8.1-18,18c0,9.9,8.1,18,18,18c9.9,0,18-8.1,18-18C608.2,418.6,600.2,410.6,590.2,410.6&#10;&#9;&#9;z" style="fill: rgb(241, 91, 64);" transform="matrix(1, 0, 0, 1, -1.4210854715202004e-14, 0)"/>
<path d="M876.9,102.8c-16.6,0-30,13.4-30,30c0,16.6,13.4,30,30,30c16.6,0,30-13.4,30-30C906.9,116.2,893.5,102.8,876.9,102.8z&#10;&#9;&#9; M876.9,150.8c-9.9,0-18-8.1-18-18c0-9.9,8.1-18,18-18c9.9,0,18,8.1,18,18C894.9,142.7,886.9,150.8,876.9,150.8z" transform="matrix(1, 0, 0, 1, -1.4210854715202004e-14, 0)"/><path d="M 839.200012 142.199997 H 844.000012 V 194.799995 H 839.200012 V 142.199997 Z" transform="matrix(0.711199939250946, 0.703000009059906, -0.703000009059906, 0.711199939250946, 361.5610961914062, -542.9766235351562)"/><path d="M 920 47.099998 H 924.8 V 127.5 H 920 V 47.099998 Z" transform="matrix(0.7071999907493591, 0.7070000171661377, -0.7070000171661377, 0.7071999907493591, 331.7966003417968, -626.5446166992188)"/><path d="M 837.099976 187.199997 A 14 14 0 0 1 823.099976 201.199997 A 14 14 0 0 1 809.099976 187.199997 A 14 14 0 0 1 823.099976 173.199997 A 14 14 0 0 1 837.099976 187.199997 Z" class="st2" style="fill: rgb(171, 225, 250);" transform="matrix(1, 0, 0, 1, -1.4210854715202004e-14, 0)"/><path d="M 817.299988 95.599998 H 866.499989 V 100.399999 H 817.299988 V 95.599998 Z" transform="matrix(0.7095000147819519, 0.7046999931335449, -0.7046999931335449, 0.7095000147819519, 313.68020629882807, -564.8671264648438)"/><path d="M 880.5 183.800003 H 980.099998 V 188.600003 H 880.5 V 183.800003 Z" transform="matrix(0.7066999673843384, 0.7075000405311584, -0.7075000405311584, 0.7066999673843384, 404.5480041503906, -603.5745849609375)"/><path d="M 900.099976 131.100006 H 945.299976 V 135.900006 H 900.099976 V 131.100006 Z" transform="matrix(0.9998999834060669, 0.0159953311085701, -0.0159953311085701, 0.9998999834060669, 2.253400087356553, -14.741399765014648)"/><path d="M 970.999989 58.900002 A 20.200001 20.200001 0 0 1 950.799988 79.100002 A 20.200001 20.200001 0 0 1 930.599987 58.900002 A 20.200001 20.200001 0 0 1 950.799988 38.700001 A 20.200001 20.200001 0 0 1 970.999989 58.900002 Z" class="st1" style="fill: rgb(241, 91, 64);" transform="matrix(1, 0, 0, 1, -1.4210854715202004e-14, 0)"/><path d="M 985.600025 221.399994 A 20.200001 20.200001 0 0 1 965.400024 241.599995 A 20.200001 20.200001 0 0 1 945.200024 221.399994 A 20.200001 20.200001 0 0 1 965.400024 201.199993 A 20.200001 20.200001 0 0 1 985.600025 221.399994 Z" class="st1" style="fill: rgb(241, 91, 64);" transform="matrix(1, 0, 0, 1, -1.4210854715202004e-14, 0)"/><path d="M 838.5 80.699997 A 14 14 0 0 1 824.5 94.699997 A 14 14 0 0 1 810.5 80.699997 A 14 14 0 0 1 824.5 66.699997 A 14 14 0 0 1 838.5 80.699997 Z" class="st1" style="fill: rgb(241, 91, 64);" transform="matrix(1, 0, 0, 1, -1.4210854715202004e-14, 0)"/><path d="M 959.299988 133.899994 A 14 14 0 0 1 945.299988 147.899994 A 14 14 0 0 1 931.299988 133.899994 A 14 14 0 0 1 945.299988 119.899994 A 14 14 0 0 1 959.299988 133.899994 Z" class="st2" style="fill: rgb(171, 225, 250);" transform="matrix(1, 0, 0, 1, -1.4210854715202004e-14, 0)"/>
<g transform="matrix(1, 0, 0, 1, -1.4210854715202004e-14, 0)">
		<g>
			<path d="M 994.899975 654.299988 A 17.299999 17.299999 0 0 1 977.599976 671.599987 A 17.299999 17.299999 0 0 1 960.299976 654.299988 A 17.299999 17.299999 0 0 1 977.599976 636.999989 A 17.299999 17.299999 0 0 1 994.899975 654.299988 Z" class="st1" style="fill: rgb(241, 91, 64);"/>
		</g>
		<g>
			<path class="st2" d="M915.9,689.1c0,9.6-7.8,17.3-17.3,17.3c-9.6,0-17.3-7.8-17.3-17.3c0-9.6,7.8-17.3,17.3-17.3&#10;&#9;&#9;&#9;&#9;C908.2,671.8,915.9,679.5,915.9,689.1z" style="fill: rgb(171, 225, 250);"/>
			<path class="st1" d="M915.9,619.5c0,9.6-7.8,17.3-17.3,17.3c-9.6,0-17.3-7.8-17.3-17.3c0-9.6,7.8-17.3,17.3-17.3&#10;&#9;&#9;&#9;&#9;C908.2,602.1,915.9,609.9,915.9,619.5z" style="fill: rgb(241, 91, 64);"/>
		</g>
		<g>
			<path d="M 834.500011 723.900024 A 17.299999 17.299999 0 0 1 817.200012 741.200024 A 17.299999 17.299999 0 0 1 799.900013 723.900024 A 17.299999 17.299999 0 0 1 817.200012 706.600025 A 17.299999 17.299999 0 0 1 834.500011 723.900024 Z" class="st2" style="fill: rgb(171, 225, 250);"/>
			<path d="M 834.500011 654.299988 A 17.299999 17.299999 0 0 1 817.200012 671.599987 A 17.299999 17.299999 0 0 1 799.900013 654.299988 A 17.299999 17.299999 0 0 1 817.200012 636.999989 A 17.299999 17.299999 0 0 1 834.500011 654.299988 Z" class="st1" style="fill: rgb(241, 91, 64);"/>
			<path d="M 834.500011 584.700012 A 17.299999 17.299999 0 0 1 817.200012 602.000011 A 17.299999 17.299999 0 0 1 799.900013 584.700012 A 17.299999 17.299999 0 0 1 817.200012 567.400013 A 17.299999 17.299999 0 0 1 834.500011 584.700012 Z" class="st1" style="fill: rgb(241, 91, 64);"/>
		</g>
		<path d="M860.3,621.9h21v-4.8h-21v-34.8h-25.8v4.8h21v64.8h-21v4.8h25.8V621.9z M855.5,721.5h-21v4.8h25.8v-34.8h21.1v-4.8h-25.9&#10;&#9;&#9;&#9;V721.5z M941.7,651.9v-34.8h-25.8v4.8h21v64.8h-21v4.8h25.8v-34.8h18.6v-4.8H941.7z"/>
	</g>
<path d="M 100.9000015258789 602.7999877929688 L 336.1000061035156 602.7999877929688 L 336.1000061035156 607.5999755859375 L 100.9000015258789 607.5999755859375 L 100.9000015258789 644.2999877929688 L 336.1000061035156 644.2999877929688 L 336.1000061035156 649.0999755859375 L 100.9000015258789 649.0999755859375 L 100.9000015258789 685.9000244140625 L 336.1000061035156 685.9000244140625 L 336.1000061035156 690.7000122070312 L 100.9000015258789 690.7000122070312 L 100.9000015258789 727.5 L 336.1000061035156 727.5 L 336.1000061035156 732.2999877929688 L 96.0999984741211 732.2999877929688 L 96.0999984741211 576.2999877929688 L 100.9000015258789 576.2999877929688 Z" class="st0" style="fill: rgb(142, 216, 248);" transform="matrix(1, 0, 0, 1, -1.4210854715202004e-14, 0)"/><path d="M 207.89999389648438 644.2999877929688 L 160.1999969482422 605 L 112.4000015258789 644.2999877929688 L 112.4000015258789 727.5 L 207.89999389648438 727.5 Z" class="st1" style="fill: rgb(241, 91, 64);" transform="matrix(1, 0, 0, 1, -1.4210854715202004e-14, 0)"/><path d="M 319.79998779296875 685.9000244140625 L 272 646.5999755859375 L 224.1999969482422 685.9000244140625 L 224.1999969482422 727.5 L 319.79998779296875 727.5 Z" transform="matrix(1, 0, 0, 1, -1.4210854715202004e-14, 0)"/>
<path class="st0" d="M941.4,313.8h-88l-44,76.2l44,76.2h1.4l86.6,0l44-76.2L941.4,313.8z M852.4,325.2l0,38.8l-33.6,19.4&#10;&#9;&#9;L852.4,325.2z M821.2,387.6l31.2-18v18L821.2,387.6z M852.4,392.4v18l-31.2-18L852.4,392.4z M818.8,396.6l33.6,19.4l0,38.8&#10;&#9;&#9;L818.8,396.6z M893.2,387.6h-36v-20.8l18-10.4L893.2,387.6z M879.4,354l18-10.4l18,10.4l-18,31.2L879.4,354z M897.4,394.8l18,31.2&#10;&#9;&#9;l-18,10.4l-18-10.4L897.4,394.8z M901.5,392.4h36v20.8l-18,10.4L901.5,392.4z M901.5,387.6l18-31.2l18,10.4v20.8H901.5z&#10;&#9;&#9; M937.6,361.3l-15.6-9l15.6-27.1V361.3z M917.8,349.8l-15.6-9l31.2-18L917.8,349.8z M931,318.6L897.4,338l-33.6-19.4H931z&#10;&#9;&#9; M892.6,340.8l-15.6,9l-15.6-27.1L892.6,340.8z M857.2,325.2l15.6,27.1l-15.6,9V325.2z M857.2,392.4h36l-18,31.2l-18-10.4V392.4z&#10;&#9;&#9; M857.2,418.7l15.6,9l-15.6,27.1V418.7z M877,430.2l15.6,9l-31.2,18L877,430.2z M863.8,461.4l33.6-19.4l33.6,19.4L863.8,461.4z&#10;&#9;&#9; M902.2,439.2l15.6-9l15.6,27.1L902.2,439.2z M937.6,454.8L922,427.8l15.6-9V454.8z M976,383.4L942.4,364l0-38.8L976,383.4z&#10;&#9;&#9; M942.4,387.6v-18l31.2,18H942.4z M973.6,392.4l-31.2,18v-18L973.6,392.4z M942.4,416l33.6-19.4l-33.6,58.3V416z" style="fill: rgb(142, 216, 248);" transform="matrix(1, 0, 0, 1, -1.4210854715202004e-14, 0)"/><path d="M 999.899975 390 A 17.299999 17.299999 0 0 1 982.599976 407.299999 A 17.299999 17.299999 0 0 1 965.299976 390 A 17.299999 17.299999 0 0 1 982.599976 372.700001 A 17.299999 17.299999 0 0 1 999.899975 390 Z" class="st1" style="fill: rgb(241, 91, 64);" transform="matrix(1, 0, 0, 1, -1.4210854715202004e-14, 0)"/><path d="M 957.299999 316.200012 A 17.299999 17.299999 0 0 1 940 333.500011 A 17.299999 17.299999 0 0 1 922.700001 316.200012 A 17.299999 17.299999 0 0 1 940 298.900013 A 17.299999 17.299999 0 0 1 957.299999 316.200012 Z" transform="matrix(1, 0, 0, 1, -1.4210854715202004e-14, 0)"/><path d="M 872.099987 316.200012 A 17.299999 17.299999 0 0 1 854.799988 333.500011 A 17.299999 17.299999 0 0 1 837.499989 316.200012 A 17.299999 17.299999 0 0 1 854.799988 298.900013 A 17.299999 17.299999 0 0 1 872.099987 316.200012 Z" class="st1" style="fill: rgb(241, 91, 64);" transform="matrix(1, 0, 0, 1, -1.4210854715202004e-14, 0)"/><path d="M 829.500011 390 A 17.299999 17.299999 0 0 1 812.200012 407.299999 A 17.299999 17.299999 0 0 1 794.900013 390 A 17.299999 17.299999 0 0 1 812.200012 372.700001 A 17.299999 17.299999 0 0 1 829.500011 390 Z" transform="matrix(1, 0, 0, 1, -1.4210854715202004e-14, 0)"/><path d="M 872.099987 463.799988 A 17.299999 17.299999 0 0 1 854.799988 481.099987 A 17.299999 17.299999 0 0 1 837.499989 463.799988 A 17.299999 17.299999 0 0 1 854.799988 446.499989 A 17.299999 17.299999 0 0 1 872.099987 463.799988 Z" class="st1" style="fill: rgb(241, 91, 64);" transform="matrix(1, 0, 0, 1, -1.4210854715202004e-14, 0)"/><path d="M 957.299999 463.799988 A 17.299999 17.299999 0 0 1 940 481.099987 A 17.299999 17.299999 0 0 1 922.700001 463.799988 A 17.299999 17.299999 0 0 1 940 446.499989 A 17.299999 17.299999 0 0 1 957.299999 463.799988 Z" transform="matrix(1, 0, 0, 1, -1.4210854715202004e-14, 0)"/>
<path d="M 650.4000244140625 727.5 L 650.4000244140625 576.2999877929688 L 645.5999755859375 576.2999877929688 L 645.5999755859375 727.5 L 584.7999877929688 727.5 L 584.7999877929688 576.2999877929688 L 580 576.2999877929688 L 580 727.5 L 519.2999877929688 727.5 L 519.2999877929688 576.2999877929688 L 514.5 576.2999877929688 L 514.5 727.5 L 453.70001220703125 727.5 L 453.70001220703125 576.2999877929688 L 448.8999938964844 576.2999877929688 L 448.8999938964844 732.2999877929688 L 691.2999877929688 732.2999877929688 L 691.2999877929688 727.5 Z" class="st0" style="fill: rgb(142, 216, 248);" transform="matrix(1, 0, 0, 1, -1.4210854715202004e-14, 0)"/><path d="M 453.700012 680.700012 H 547.800011 V 716.700012 H 453.700012 V 680.700012 Z" class="st1" style="fill: rgb(241, 91, 64);" transform="matrix(1, 0, 0, 1, -2.842170943040401e-14, 0)"/><path d="M 453.700012 680.700012 H 500.800011 V 716.700012 H 453.700012 V 680.700012 Z" transform="matrix(1, 0, 0, 1, -2.842170943040401e-14, 0)"/><path d="M 453.700012 587.099976 H 647.800018 V 623.099976 H 453.700012 V 587.099976 Z" class="st1" style="fill: rgb(241, 91, 64);" transform="matrix(1, 0, 0, 1, -2.842170943040401e-14, 0)"/><path d="M 453.700012 587.099976 H 517.100014 V 623.099976 H 453.700012 V 587.099976 Z" transform="matrix(1, 0, 0, 1, -2.842170943040401e-14, 0)"/><path d="M 453.700012 633.900024 H 582.600006 V 669.900024 H 453.700012 V 633.900024 Z" class="st1" style="fill: rgb(241, 91, 64);" transform="matrix(1, 0, 0, 1, -2.842170943040401e-14, 0)"/><path d="M 453.700012 633.900024 H 517.100014 V 669.900024 H 453.700012 V 633.900024 Z" transform="matrix(1, 0, 0, 1, -2.842170943040401e-14, 0)"/>
<path d="M158.5,87.6c-12.6,13.9-20.4,32.3-20.4,52.5c0,20.2,7.7,38.7,20.4,52.5l52.5-52.5L158.5,87.6z" transform="matrix(1, 0, 0, 1, -1.4210854715202004e-14, 0)"/><path class="st0" d="M217.6,136.5H294c-1.9-41.4-36-74.4-77.9-74.4c-20.2,0-38.7,7.7-52.5,20.4L217.6,136.5z" style="fill: rgb(142, 216, 248);" transform="matrix(1, 0, 0, 1, -1.4210854715202004e-14, 0)"/><path class="st1" d="M217.6,143.7l-54,54c13.9,12.6,32.3,20.4,52.5,20.4c41.9,0,76-33,77.9-74.4H217.6z" style="fill: rgb(241, 91, 64);" transform="matrix(1, 0, 0, 1, -1.4210854715202004e-14, 0)"/>
</svg>